<svg xmlns="http://www.w3.org/2000/svg" viewBox="0 0 32 32">
  <rect width="32" height="32" fill="#000000"/>
  <!-- Compact spaceship design (Design 5) - Pink theme #ff6b9d -->
  <g transform="translate(2, 4)">
    <!-- Row 0: [0, 0, 0, 0, 1, 1, 1, 0, 0, 0, 0] -->
    <rect x="10" y="0" width="3" height="3" fill="#ff6b9d"/>
    <rect x="13" y="0" width="3" height="3" fill="#ff6b9d"/>
    <rect x="16" y="0" width="3" height="3" fill="#ff6b9d"/>
    <!-- Row 1: [0, 0, 0, 1, 2, 3, 2, 1, 0, 0, 0] -->
    <rect x="7" y="3" width="3" height="3" fill="#ff6b9d"/>
    <rect x="10" y="3" width="3" height="3" fill="#e54b7d"/>
    <rect x="13" y="3" width="3" height="3" fill="#ffffff"/>
    <rect x="16" y="3" width="3" height="3" fill="#e54b7d"/>
    <rect x="19" y="3" width="3" height="3" fill="#ff6b9d"/>
    <!-- Row 2: [0, 0, 1, 2, 2, 2, 2, 2, 1, 0, 0] -->
    <rect x="4" y="6" width="3" height="3" fill="#ff6b9d"/>
    <rect x="7" y="6" width="3" height="3" fill="#e54b7d"/>
    <rect x="10" y="6" width="3" height="3" fill="#e54b7d"/>
    <rect x="13" y="6" width="3" height="3" fill="#e54b7d"/>
    <rect x="16" y="6" width="3" height="3" fill="#e54b7d"/>
    <rect x="19" y="6" width="3" height="3" fill="#e54b7d"/>
    <rect x="22" y="6" width="3" height="3" fill="#ff6b9d"/>
    <!-- Row 3: [0, 1, 2, 2, 2, 2, 2, 2, 2, 1, 0] -->
    <rect x="1" y="9" width="3" height="3" fill="#ff6b9d"/>
    <rect x="4" y="9" width="3" height="3" fill="#e54b7d"/>
    <rect x="7" y="9" width="3" height="3" fill="#e54b7d"/>
    <rect x="10" y="9" width="3" height="3" fill="#e54b7d"/>
    <rect x="13" y="9" width="3" height="3" fill="#e54b7d"/>
    <rect x="16" y="9" width="3" height="3" fill="#e54b7d"/>
    <rect x="19" y="9" width="3" height="3" fill="#e54b7d"/>
    <rect x="22" y="9" width="3" height="3" fill="#e54b7d"/>
    <rect x="25" y="9" width="3" height="3" fill="#ff6b9d"/>
    <!-- Row 4: [1, 2, 2, 2, 2, 2, 2, 2, 2, 2, 1] -->
    <rect x="-2" y="12" width="3" height="3" fill="#ff6b9d"/>
    <rect x="1" y="12" width="3" height="3" fill="#e54b7d"/>
    <rect x="4" y="12" width="3" height="3" fill="#e54b7d"/>
    <rect x="7" y="12" width="3" height="3" fill="#e54b7d"/>
    <rect x="10" y="12" width="3" height="3" fill="#e54b7d"/>
    <rect x="13" y="12" width="3" height="3" fill="#e54b7d"/>
    <rect x="16" y="12" width="3" height="3" fill="#e54b7d"/>
    <rect x="19" y="12" width="3" height="3" fill="#e54b7d"/>
    <rect x="22" y="12" width="3" height="3" fill="#e54b7d"/>
    <rect x="25" y="12" width="3" height="3" fill="#e54b7d"/>
    <rect x="28" y="12" width="3" height="3" fill="#ff6b9d"/>
    <!-- Row 5: [1, 2, 1, 2, 2, 2, 2, 2, 1, 2, 1] -->
    <rect x="-2" y="15" width="3" height="3" fill="#ff6b9d"/>
    <rect x="1" y="15" width="3" height="3" fill="#e54b7d"/>
    <rect x="4" y="15" width="3" height="3" fill="#ff6b9d"/>
    <rect x="7" y="15" width="3" height="3" fill="#e54b7d"/>
    <rect x="10" y="15" width="3" height="3" fill="#e54b7d"/>
    <rect x="13" y="15" width="3" height="3" fill="#e54b7d"/>
    <rect x="16" y="15" width="3" height="3" fill="#e54b7d"/>
    <rect x="19" y="15" width="3" height="3" fill="#e54b7d"/>
    <rect x="22" y="15" width="3" height="3" fill="#ff6b9d"/>
    <rect x="25" y="15" width="3" height="3" fill="#e54b7d"/>
    <rect x="28" y="15" width="3" height="3" fill="#ff6b9d"/>
    <!-- Row 6: [1, 1, 0, 1, 1, 1, 1, 1, 0, 1, 1] -->
    <rect x="-2" y="18" width="3" height="3" fill="#ff6b9d"/>
    <rect x="1" y="18" width="3" height="3" fill="#ff6b9d"/>
    <rect x="7" y="18" width="3" height="3" fill="#ff6b9d"/>
    <rect x="10" y="18" width="3" height="3" fill="#ff6b9d"/>
    <rect x="13" y="18" width="3" height="3" fill="#ff6b9d"/>
    <rect x="16" y="18" width="3" height="3" fill="#ff6b9d"/>
    <rect x="19" y="18" width="3" height="3" fill="#ff6b9d"/>
    <rect x="25" y="18" width="3" height="3" fill="#ff6b9d"/>
    <rect x="28" y="18" width="3" height="3" fill="#ff6b9d"/>
  </g>
</svg>
