<svg xmlns="http://www.w3.org/2000/svg" viewBox="0 0 512 512">
  <rect width="512" height="512" fill="#000000"/>
  <!-- Compact spaceship design (Design 5) - Pink theme #ff6b9d -->
  <g transform="translate(96, 100) scale(29)">
    <!-- Row 0: [0, 0, 0, 0, 1, 1, 1, 0, 0, 0, 0] -->
    <rect x="4" y="0" width="1" height="1" fill="#ff6b9d"/>
    <rect x="5" y="0" width="1" height="1" fill="#ff6b9d"/>
    <rect x="6" y="0" width="1" height="1" fill="#ff6b9d"/>
    <!-- Row 1: [0, 0, 0, 1, 2, 3, 2, 1, 0, 0, 0] -->
    <rect x="3" y="1" width="1" height="1" fill="#ff6b9d"/>
    <rect x="4" y="1" width="1" height="1" fill="#e54b7d"/>
    <rect x="5" y="1" width="1" height="1" fill="#ffffff"/>
    <rect x="6" y="1" width="1" height="1" fill="#e54b7d"/>
    <rect x="7" y="1" width="1" height="1" fill="#ff6b9d"/>
    <!-- Row 2: [0, 0, 1, 2, 2, 2, 2, 2, 1, 0, 0] -->
    <rect x="2" y="2" width="1" height="1" fill="#ff6b9d"/>
    <rect x="3" y="2" width="1" height="1" fill="#e54b7d"/>
    <rect x="4" y="2" width="1" height="1" fill="#e54b7d"/>
    <rect x="5" y="2" width="1" height="1" fill="#e54b7d"/>
    <rect x="6" y="2" width="1" height="1" fill="#e54b7d"/>
    <rect x="7" y="2" width="1" height="1" fill="#e54b7d"/>
    <rect x="8" y="2" width="1" height="1" fill="#ff6b9d"/>
    <!-- Row 3: [0, 1, 2, 2, 2, 2, 2, 2, 2, 1, 0] -->
    <rect x="1" y="3" width="1" height="1" fill="#ff6b9d"/>
    <rect x="2" y="3" width="1" height="1" fill="#e54b7d"/>
    <rect x="3" y="3" width="1" height="1" fill="#e54b7d"/>
    <rect x="4" y="3" width="1" height="1" fill="#e54b7d"/>
    <rect x="5" y="3" width="1" height="1" fill="#e54b7d"/>
    <rect x="6" y="3" width="1" height="1" fill="#e54b7d"/>
    <rect x="7" y="3" width="1" height="1" fill="#e54b7d"/>
    <rect x="8" y="3" width="1" height="1" fill="#e54b7d"/>
    <rect x="9" y="3" width="1" height="1" fill="#ff6b9d"/>
    <!-- Row 4: [1, 2, 2, 2, 2, 2, 2, 2, 2, 2, 1] -->
    <rect x="0" y="4" width="1" height="1" fill="#ff6b9d"/>
    <rect x="1" y="4" width="1" height="1" fill="#e54b7d"/>
    <rect x="2" y="4" width="1" height="1" fill="#e54b7d"/>
    <rect x="3" y="4" width="1" height="1" fill="#e54b7d"/>
    <rect x="4" y="4" width="1" height="1" fill="#e54b7d"/>
    <rect x="5" y="4" width="1" height="1" fill="#e54b7d"/>
    <rect x="6" y="4" width="1" height="1" fill="#e54b7d"/>
    <rect x="7" y="4" width="1" height="1" fill="#e54b7d"/>
    <rect x="8" y="4" width="1" height="1" fill="#e54b7d"/>
    <rect x="9" y="4" width="1" height="1" fill="#e54b7d"/>
    <rect x="10" y="4" width="1" height="1" fill="#ff6b9d"/>
    <!-- Row 5: [1, 2, 1, 2, 2, 2, 2, 2, 1, 2, 1] -->
    <rect x="0" y="5" width="1" height="1" fill="#ff6b9d"/>
    <rect x="1" y="5" width="1" height="1" fill="#e54b7d"/>
    <rect x="2" y="5" width="1" height="1" fill="#ff6b9d"/>
    <rect x="3" y="5" width="1" height="1" fill="#e54b7d"/>
    <rect x="4" y="5" width="1" height="1" fill="#e54b7d"/>
    <rect x="5" y="5" width="1" height="1" fill="#e54b7d"/>
    <rect x="6" y="5" width="1" height="1" fill="#e54b7d"/>
    <rect x="7" y="5" width="1" height="1" fill="#e54b7d"/>
    <rect x="8" y="5" width="1" height="1" fill="#ff6b9d"/>
    <rect x="9" y="5" width="1" height="1" fill="#e54b7d"/>
    <rect x="10" y="5" width="1" height="1" fill="#ff6b9d"/>
    <!-- Row 6: [1, 1, 0, 1, 1, 1, 1, 1, 0, 1, 1] -->
    <rect x="0" y="6" width="1" height="1" fill="#ff6b9d"/>
    <rect x="1" y="6" width="1" height="1" fill="#ff6b9d"/>
    <rect x="3" y="6" width="1" height="1" fill="#ff6b9d"/>
    <rect x="4" y="6" width="1" height="1" fill="#ff6b9d"/>
    <rect x="5" y="6" width="1" height="1" fill="#ff6b9d"/>
    <rect x="6" y="6" width="1" height="1" fill="#ff6b9d"/>
    <rect x="7" y="6" width="1" height="1" fill="#ff6b9d"/>
    <rect x="9" y="6" width="1" height="1" fill="#ff6b9d"/>
    <rect x="10" y="6" width="1" height="1" fill="#ff6b9d"/>
  </g>
</svg>
